<svg width="444" height="173" viewBox="0 0 444 173" fill="none" xmlns="http://www.w3.org/2000/svg">
<path d="M26.6089 104.97C18.2528 100.277 11.7305 93.6751 7.0374 85.1681C2.34432 76.6566 0 66.9374 0 56.0017C0 45.066 2.34432 35.3513 7.0374 26.8398C11.7305 18.3328 18.2528 11.7305 26.6089 7.0374C34.965 2.34876 44.4533 0 55.0738 0C65.6942 0 75.3379 2.34876 83.694 7.0374C92.0501 11.7305 98.5724 18.3328 103.266 26.8398C107.959 35.3513 110.303 45.0704 110.303 56.0017C110.303 66.933 107.954 76.6522 103.266 85.1636C98.5724 93.6707 92.0501 100.273 83.694 104.966C75.3424 109.659 65.8008 112.003 55.0738 112.003C44.3467 112.003 34.9606 109.659 26.6089 104.966V104.97ZM72.3232 88.2583C77.3226 85.319 81.2165 81.0922 84.0048 75.5732C86.7887 70.0588 88.1828 63.532 88.1828 56.0017C88.1828 48.4715 86.7887 41.9491 84.0048 36.4302C81.2209 30.9113 77.327 26.6844 72.3232 23.7451C67.3193 20.8058 61.5695 19.3362 55.0738 19.3362C48.578 19.3362 42.9792 20.8058 37.9798 23.7451C32.9759 26.6844 29.0864 30.9157 26.2981 36.4302C23.5142 41.9491 22.1201 48.4715 22.1201 56.0017C22.1201 63.532 23.5142 70.0543 26.2981 75.5732C29.082 81.0922 32.9759 85.319 37.9798 88.2583C42.9836 91.1976 48.6802 92.6672 55.0738 92.6672C61.4674 92.6672 67.3193 91.1976 72.3232 88.2583Z" fill="#0003E2"/>
<path d="M110.041 140.459H72.2835C61.5742 140.459 52.8984 131.779 52.8984 121.074H90.6562C101.365 121.074 110.041 129.754 110.041 140.459Z" fill="#0003E2"/>
<path d="M208.387 1.85596V2.10016L178.208 44.3512C177.68 45.0882 176.583 45.0927 176.05 44.3601L145.112 1.85596H124.071V110.148H145.112V34.0948L163.738 59.3451C170.269 68.1984 183.514 68.1674 190.001 59.2785L208.387 34.0948V110.152H229.583V1.85596H208.387Z" fill="#0003E2"/>
<path d="M401.362 55.7575L390.782 27.0752L376.858 64.824L370.513 82.1534L360.146 110.156H338.177L380.725 1.85596H401.3L422.519 55.7531H401.358L401.362 55.7575Z" fill="#0003E2"/>
<path d="M431.679 78.9035C431.111 77.4516 430.573 76.2794 430.058 75.2715C429.978 75.1161 429.898 74.9607 429.814 74.8098C429.774 74.7343 429.734 74.6499 429.694 74.5789L429.681 74.5878C426.338 68.7625 420.068 64.8242 412.867 64.8242H381.4C381.4 75.5335 390.081 84.2093 400.785 84.2093H410.855C411.41 84.2093 411.908 84.5556 412.103 85.0751L421.414 110.148H444L431.679 78.899V78.9035Z" fill="#0003E2"/>
<path d="M337.72 110.152L306.005 68.6913C313.74 66.5246 319.854 62.6351 324.338 57.0096C328.827 51.3886 331.069 44.6576 331.069 36.821C331.069 25.8897 327.513 17.3294 320.395 11.14C313.278 4.95064 303.581 1.85596 291.309 1.85596H247.992V110.148H269.033V20.575H290.23C296.211 20.575 300.828 21.9425 304.078 24.6776C307.328 27.4126 308.953 31.4619 308.953 36.821C308.953 42.18 307.328 46.0784 304.078 48.809C301.064 51.3442 296.823 52.6496 291.46 52.8316H275.285C275.285 57.054 276.648 60.9479 278.939 64.1314L278.952 64.1802L299.061 91.8548L312.35 110.148H337.72V110.152Z" fill="#0003E2"/>
<path d="M145.112 140.459H169.159V144.149H159.116V171.571H155.16V144.149H145.112V140.459Z" fill="#0003E2"/>
<path d="M178.555 169.994C176.17 168.645 174.319 166.767 173 164.347C171.682 161.936 171.024 159.156 171.024 156.013C171.024 152.869 171.682 150.094 173 147.679C174.319 145.268 176.17 143.381 178.555 142.036C180.939 140.686 183.643 140.016 186.667 140.016C189.69 140.016 192.385 140.69 194.756 142.036C197.127 143.381 198.97 145.264 200.288 147.679C201.607 150.094 202.264 152.874 202.264 156.013C202.264 159.152 201.607 161.936 200.288 164.347C198.97 166.762 197.127 168.645 194.756 169.994C192.385 171.344 189.69 172.015 186.667 172.015C183.643 172.015 180.939 171.34 178.555 169.994ZM192.558 166.749C194.29 165.754 195.649 164.338 196.625 162.504C197.602 160.666 198.091 158.504 198.091 156.017C198.091 153.531 197.602 151.364 196.625 149.531C195.649 147.692 194.294 146.28 192.558 145.286C190.822 144.291 188.86 143.794 186.667 143.794C184.473 143.794 182.511 144.291 180.779 145.286C179.043 146.276 177.684 147.692 176.69 149.531C175.695 151.369 175.202 153.531 175.202 156.017C175.202 158.504 175.7 160.67 176.69 162.504C177.684 164.342 179.043 165.754 180.779 166.749C182.511 167.739 184.478 168.236 186.667 168.236C188.855 168.236 190.822 167.739 192.558 166.749Z" fill="#0003E2"/>
<path d="M214.51 169.994C212.125 168.645 210.274 166.767 208.955 164.347C207.637 161.936 206.979 159.156 206.979 156.013C206.979 152.869 207.637 150.094 208.955 147.679C210.274 145.268 212.125 143.381 214.51 142.036C216.894 140.686 219.598 140.016 222.622 140.016C225.645 140.016 228.34 140.69 230.711 142.036C233.082 143.381 234.925 145.264 236.244 147.679C237.562 150.094 238.219 152.874 238.219 156.013C238.219 159.152 237.562 161.936 236.244 164.347C234.925 166.762 233.082 168.645 230.711 169.994C228.34 171.344 225.645 172.015 222.622 172.015C219.598 172.015 216.894 171.34 214.51 169.994ZM228.513 166.749C230.245 165.754 231.604 164.338 232.581 162.504C233.557 160.666 234.046 158.504 234.046 156.017C234.046 153.531 233.557 151.364 232.581 149.531C231.604 147.692 230.25 146.28 228.513 145.286C226.777 144.291 224.815 143.794 222.622 143.794C220.428 143.794 218.466 144.291 216.734 145.286C214.998 146.276 213.639 147.692 212.645 149.531C211.65 151.369 211.158 153.531 211.158 156.017C211.158 158.504 211.655 160.67 212.645 162.504C213.639 164.342 214.998 165.754 216.734 166.749C218.466 167.739 220.433 168.236 222.622 168.236C224.811 168.236 226.777 167.739 228.513 166.749Z" fill="#0003E2"/>
<path d="M248.445 140.459V167.881H264.003V171.571H244.444V140.459H248.445Z" fill="#0003E2"/>
<path d="M300.957 157.815C302.067 159.134 302.626 160.772 302.626 162.726C302.626 165.63 301.64 167.828 299.669 169.324C297.698 170.82 295.011 171.571 291.601 171.571H278.979V140.459H290.576C293.866 140.459 296.437 141.143 298.288 142.506C300.14 143.869 301.068 145.912 301.068 148.638C301.068 150.179 300.646 151.506 299.802 152.616C298.958 153.726 297.809 154.552 296.357 155.085C298.315 155.591 299.847 156.501 300.957 157.82V157.815ZM282.979 144.06V153.615H290.447C292.52 153.615 294.119 153.256 295.247 152.55C296.37 151.839 296.934 150.592 296.934 148.816C296.934 147.04 296.37 145.836 295.247 145.126C294.119 144.416 292.52 144.06 290.447 144.06H282.979ZM291.513 167.97C293.764 167.97 295.482 167.548 296.667 166.7C297.853 165.856 298.443 164.471 298.443 162.548C298.443 160.626 297.848 159.192 296.667 158.344C295.482 157.5 293.764 157.078 291.513 157.078H282.979V167.97H291.513Z" fill="#0003E2"/>
<path d="M327.601 140.46H332.179L319.911 156.728V171.571H315.911V156.634L303.599 140.455H308.309L317.953 152.723L327.597 140.455L327.601 140.46Z" fill="#0003E2"/>
<path d="M359.111 155.746L373.377 171.571H365.376L352.576 157.216V171.571H346.488V140.459H352.576V154.814L364.577 140.459H372.356L359.111 155.746Z" fill="#0003E2"/>
<path d="M399.289 161.301L410.846 140.455H417.6L399.644 171.566H394.09L393.557 150.68L381.201 171.566H375.202V140.455H381.334L381.023 161.345L392.98 140.455H398.668L399.289 161.301Z" fill="#0003E2"/>
<path d="M442.507 158.082C443.502 159.427 443.999 160.99 443.999 162.77C443.999 165.648 443.027 167.832 441.087 169.324C439.146 170.82 436.336 171.571 432.664 171.571H419.375V140.459H431.687C435.093 140.459 437.726 141.17 439.577 142.595C441.428 144.016 442.356 146.107 442.356 148.864C442.356 150.259 441.997 151.493 441.269 152.576C440.545 153.66 439.542 154.508 438.267 155.129C440.105 155.751 441.517 156.741 442.512 158.086L442.507 158.082ZM425.462 145.659V153.082H431.199C432.77 153.082 433.969 152.812 434.8 152.261C435.63 151.71 436.047 150.756 436.047 149.393C436.047 148.03 435.625 147.102 434.777 146.529C433.934 145.952 432.739 145.659 431.199 145.659H425.462ZM432.442 166.371C435.967 166.371 437.73 164.977 437.73 162.193C437.73 159.409 435.967 157.971 432.442 157.971H425.462V166.371H432.442Z" fill="#0003E2"/>
</svg>
