<svg width="70" height="23" viewBox="0 0 70 23" fill="none" xmlns="http://www.w3.org/2000/svg">
<path d="M4.19509 16.5549C2.87769 15.8147 1.8494 14.7735 1.1095 13.4319C0.369599 12.0895 0 10.5567 0 8.83203C0 7.10736 0.369599 5.57525 1.1095 4.2329C1.8494 2.89126 2.87769 1.85001 4.19509 1.10987C5.51249 0.370423 7.00838 0 8.68278 0C10.3572 0 11.8776 0.370423 13.195 1.10987C14.5124 1.85001 15.5407 2.89126 16.2806 4.2329C17.0205 5.57525 17.3901 7.10806 17.3901 8.83203C17.3901 10.556 17.0198 12.0888 16.2806 13.4312C15.5407 14.7728 14.5124 15.814 13.195 16.5542C11.8783 17.2943 10.374 17.6641 8.68278 17.6641C6.99158 17.6641 5.51179 17.2943 4.19509 16.5542V16.5549ZM11.4023 13.9192C12.1905 13.4557 12.8044 12.789 13.244 11.9187C13.6829 11.049 13.9027 10.0196 13.9027 8.83203C13.9027 7.64443 13.6829 6.61579 13.244 5.74541C12.8051 4.87502 12.1912 4.2084 11.4023 3.74484C10.6134 3.28129 9.70688 3.04951 8.68278 3.04951C7.65868 3.04951 6.77598 3.28129 5.98779 3.74484C5.19889 4.2084 4.58569 4.87572 4.14609 5.74541C3.70719 6.61579 3.48739 7.64443 3.48739 8.83203C3.48739 10.0196 3.70719 11.0483 4.14609 11.9187C4.58499 12.789 5.19889 13.4557 5.98779 13.9192C6.77668 14.3828 7.67478 14.6145 8.68278 14.6145C9.69078 14.6145 10.6134 14.3828 11.4023 13.9192Z" fill="#0003E2"/>
<path d="M17.3488 22.1517H11.396C9.70764 22.1517 8.33984 20.7827 8.33984 19.0945H14.2926C15.981 19.0945 17.3488 20.4634 17.3488 22.1517Z" fill="#0003E2"/>
<path d="M32.8535 0.292725V0.331237L28.0956 6.99465C28.0123 7.11089 27.8394 7.11159 27.7554 6.99605L22.8778 0.292725H19.5605V17.3714H22.8778V5.37711L25.8143 9.35933C26.844 10.7556 28.9321 10.7507 29.9548 9.34883L32.8535 5.37711V17.3721H36.1953V0.292725H32.8535Z" fill="#0003E2"/>
<path d="M63.2781 8.79354L61.61 4.27004L59.4148 10.2234L58.4145 12.9564L56.78 17.3728H53.3164L60.0245 0.292725H63.2683L66.6136 8.79284H63.2774L63.2781 8.79354Z" fill="#0003E2"/>
<path d="M68.0576 12.4441C67.968 12.2151 67.8833 12.0302 67.8021 11.8713C67.7895 11.8468 67.7769 11.8223 67.7636 11.7985C67.7573 11.7866 67.751 11.7732 67.7447 11.762L67.7426 11.7634C67.2155 10.8447 66.2271 10.2236 65.0917 10.2236H60.1309C60.1309 11.9126 61.4994 13.2808 63.1871 13.2808H64.7746C64.8621 13.2808 64.9405 13.3355 64.9713 13.4174L66.4392 17.3716H70.0001L68.0576 12.4434V12.4441Z" fill="#0003E2"/>
<path d="M53.2439 17.3721L48.2438 10.8333C49.4632 10.4916 50.4271 9.8782 51.1341 8.99101C51.8418 8.10451 52.1953 7.04296 52.1953 5.80705C52.1953 4.08308 51.6346 2.73303 50.5125 1.75691C49.3904 0.780786 47.8616 0.292725 45.9268 0.292725H39.0977V17.3714H42.4149V3.2449H45.7567C46.6996 3.2449 47.4276 3.46058 47.94 3.89192C48.4524 4.32326 48.7086 4.96187 48.7086 5.80705C48.7086 6.65223 48.4524 7.26704 47.94 7.69768C47.4647 8.09751 46.7962 8.30338 45.9506 8.33209H43.4005C43.4005 8.99801 43.6154 9.61211 43.9766 10.1142L43.9787 10.1219L47.149 14.4864L49.2441 17.3714H53.2439V17.3721Z" fill="#0003E2"/>
</svg>
