<svg width="18" height="23" viewBox="0 0 18 23" fill="none" xmlns="http://www.w3.org/2000/svg">
<path d="M4.19509 16.5549C2.87769 15.8147 1.8494 14.7735 1.1095 13.4319C0.369599 12.0895 0 10.5567 0 8.83203C0 7.10736 0.369599 5.57525 1.1095 4.2329C1.8494 2.89126 2.87769 1.85001 4.19509 1.10987C5.51249 0.370423 7.00838 0 8.68278 0C10.3572 0 11.8776 0.370423 13.195 1.10987C14.5124 1.85001 15.5407 2.89126 16.2806 4.2329C17.0205 5.57525 17.3901 7.10806 17.3901 8.83203C17.3901 10.556 17.0198 12.0888 16.2806 13.4312C15.5407 14.7728 14.5124 15.814 13.195 16.5542C11.8783 17.2943 10.374 17.6641 8.68278 17.6641C6.99158 17.6641 5.51179 17.2943 4.19509 16.5542V16.5549ZM11.4023 13.9192C12.1905 13.4557 12.8044 12.789 13.244 11.9187C13.6829 11.049 13.9027 10.0196 13.9027 8.83203C13.9027 7.64443 13.6829 6.61579 13.244 5.74541C12.8051 4.87502 12.1912 4.2084 11.4023 3.74484C10.6134 3.28129 9.70688 3.04951 8.68278 3.04951C7.65868 3.04951 6.77598 3.28129 5.98779 3.74484C5.19889 4.2084 4.58569 4.87572 4.14609 5.74541C3.70719 6.61579 3.48739 7.64443 3.48739 8.83203C3.48739 10.0196 3.70719 11.0483 4.14609 11.9187C4.58499 12.789 5.19889 13.4557 5.98779 13.9192C6.77668 14.3828 7.67478 14.6145 8.68278 14.6145C9.69078 14.6145 10.6134 14.3828 11.4023 13.9192Z" fill="#0003E2"/>
<path d="M17.3488 22.1517H11.396C9.70764 22.1517 8.33984 20.7827 8.33984 19.0945H14.2926C15.981 19.0945 17.3488 20.4634 17.3488 22.1517Z" fill="#0003E2"/>
</svg>
